<?xml version="1.0" standalone="no"?><!DOCTYPE svg PUBLIC "-//W3C//DTD SVG 1.1//EN" "http://www.w3.org/Graphics/SVG/1.1/DTD/svg11.dtd"><svg t="1532138216877" class="icon" style="" viewBox="0 0 1024 1024" version="1.1" xmlns="http://www.w3.org/2000/svg" p-id="3109" xmlns:xlink="http://www.w3.org/1999/xlink" width="48" height="48"><defs><style type="text/css"></style></defs><path d="M896 192v768H128V64h640V0H128a64 64 0 0 0-64 64v896a64 64 0 0 0 64 64h768a64 64 0 0 0 64-64V192z" fill="#ffffff" p-id="3110"></path><path d="M528 548.512v205.504l176-102.688v-205.472l-176 102.656zM512 520.8l176.128-102.72L512 315.328l-176.128 102.752L512 520.8zM496 548.512L320 445.856v205.472l176 102.688v-205.504zM800 0v92.8A67.2 67.2 0 0 0 867.2 160H960z" fill="#ffffff" p-id="3111"></path></svg>