<?xml version="1.0" encoding="utf-8"?>
<!-- Generator: Adobe Illustrator 21.0.0, SVG Export Plug-In . SVG Version: 6.00 Build 0)  -->
<svg version="1.1" id="图层_1" xmlns="http://www.w3.org/2000/svg" xmlns:xlink="http://www.w3.org/1999/xlink" x="0px" y="0px"
	 width="48px" height="48px" viewBox="0 0 48 48" style="enable-background:new 0 0 48 48;" xml:space="preserve">
<style type="text/css">
	.st0{fill:#FFFFFF;}
</style>
<g>
	<path class="st0" d="M24.2,45c-11.6,0-21-9.4-21-21s9.4-21,21-21C34.8,3,43.5,10.8,45,21h2C45.5,9.7,35.9,1,24.2,1
		c-12.7,0-23,10.3-23,23s10.3,23,23,23c11.7,0,21.3-8.7,22.8-20h-2C43.5,37.2,34.8,45,24.2,45z"/>
	<path class="st0" d="M36.9,33c0-0.3,0.1-0.7,0.1-1c0-3.7-2.2-6.8-5.4-8.2c1.4-1.1,2.4-2.8,2.4-4.8c0-3.3-2.7-6-6-6
		c-0.5,0-1,0.1-1.5,0.2c0.6,0.5,1,1.1,1.4,1.8c0,0,0.1,0,0.1,0c2.2,0,4,1.8,4,4s-1.8,4-4,4c0,0-0.1,0-0.1,0
		c-0.1,0.1-0.1,0.2-0.2,0.3c0.7,0.6,1.3,1.2,1.9,1.9c3.1,0.7,5.4,3.5,5.4,6.8c0,0.3,0,0.7-0.1,1H36.9z"/>
	<path class="st0" d="M29.9,33c0-0.3,0.1-0.7,0.1-1c0-3.7-2.2-6.8-5.4-8.2c1.4-1.1,2.4-2.8,2.4-4.8c0-3.3-2.7-6-6-6s-6,2.7-6,6
		c0,1.9,0.9,3.7,2.4,4.8C14.2,25.2,12,28.3,12,32c0,0.3,0,0.7,0.1,1h2c0-0.3-0.1-0.7-0.1-1c0-3.9,3.1-7,7-7s7,3.1,7,7
		c0,0.3,0,0.7-0.1,1H29.9z M21,23c-2.2,0-4-1.8-4-4s1.8-4,4-4s4,1.8,4,4S23.2,23,21,23z"/>
</g>
</svg>
