<?xml version="1.0" standalone="no"?><!DOCTYPE svg PUBLIC "-//W3C//DTD SVG 1.1//EN" "http://www.w3.org/Graphics/SVG/1.1/DTD/svg11.dtd"><svg t="1532138396084" class="icon" style="" viewBox="0 0 1024 1024" version="1.1" xmlns="http://www.w3.org/2000/svg" p-id="4531" xmlns:xlink="http://www.w3.org/1999/xlink" width="48" height="48"><defs><style type="text/css"></style></defs><path d="M637.866667 256l-108.8-64-8.533334-4.266667-8.533333 2.133334-108.8 64-130.133333-70.4-168.533334 98.133333v192l168.533334 98.133333 4.266666 2.133334 61.866667-34.133334v-87.466666l-46.933333-23.466667-78.933334 46.933333-53.333333-32v-132.266666l119.466667-66.133334 72.533333 40.533334-68.266667 42.666666 91.733334 59.733334-27.733334 12.8v202.666666l170.666667 98.133334 2.133333 2.133333h2.133334l174.933333-98.133333v-202.666667l-27.733333-12.8 91.733333-59.733333-68.266667-42.666667 72.533334-40.533333 119.466666 66.133333v132.266667L832 477.866667l-78.933333-46.933334-49.066667 23.466667v87.466667l61.866667 34.133333 170.666666-100.266667v-192L768 185.6 637.866667 256z m-251.733334 74.666667l134.4-85.333334 134.4 85.333334-134.4 83.2-134.4-83.2z m226.133334 87.466666l29.866666 17.066667v134.4L520.533333 640l-119.466666-68.266667v-134.4l29.866666-17.066666 91.733334 55.466666 89.6-57.6z m123.733333 78.933334l14.933333-8.533334 27.733334 17.066667-12.8 8.533333-29.866667-17.066666z m-473.6 8.533333l27.733333-17.066667 14.933334 8.533334-29.866667 17.066666-12.8-8.533333zM520.533333 66.133333l8.533334 4.266667 4.266666 2.133333 160 87.466667V213.333333L640 243.2V194.133333l-119.466667-70.4-119.466666 70.4v51.2L347.733333 213.333333V160l172.8-93.866667z m324.266667 475.733334l38.4 25.6v149.333333l-132.266667 78.933333-42.666666-21.333333v-110.933333l-51.2-29.866667-96 55.466667v61.866666l96 53.333334v40.533333l-134.4 78.933333-134.4-78.933333v-40.533333l96-53.333334v-61.866666L384 631.466667 332.8 661.333333v110.933334l-42.666667 21.333333-132.266666-78.933333v-149.333334l38.4-25.6-55.466667-32-36.266667 29.866667v211.2l183.466667 106.666667 44.8-23.466667v36.266667l179.2 104.533333 8.533333 4.266667 8.533334-4.266667 174.933333-102.4 2.133333-2.133333V832l44.8 23.466667 183.466667-106.666667v-211.2l-36.266667-29.866667-53.333333 34.133334z m-230.4 177.066666v-55.466666l42.666667 25.6v53.333333l-42.666667-23.466667z m-228.266667-29.866666l42.666667-25.6v55.466666l-42.666667 21.333334v-51.2z" fill="#f4ea2a" p-id="4532"></path></svg>